<?xml version="1.0" encoding="UTF-8"?>
<svg version="1.1" xmlns="http://www.w3.org/2000/svg" width="512" height="512">
<path d="M0 0 C5.3063536 3.19986162 8.85223815 7.1772999 11.19140625 12.93359375 C12.44140625 18.05859375 12.44140625 18.05859375 12.44140625 33.05859375 C62.60140625 33.05859375 112.76140625 33.05859375 164.44140625 33.05859375 C164.44140625 27.77859375 164.44140625 22.49859375 164.44140625 17.05859375 C165.93881335 10.98577607 168.68993461 6.14755083 173.44140625 2.05859375 C179.92076899 -1.84364587 186.06554684 -1.83493893 193.44140625 -0.94140625 C199.15208895 1.13682043 203.03397793 5.14788822 206.44140625 10.05859375 C208.59605898 15.10856108 208.68498875 19.55177246 208.56640625 24.93359375 C208.55738281 25.71734375 208.54835938 26.50109375 208.5390625 27.30859375 C208.51568688 29.2253943 208.47982278 31.14203566 208.44140625 33.05859375 C209.37133392 33.0497113 210.3012616 33.04082886 211.2593689 33.03167725 C220.05643867 32.95031608 228.85343133 32.89049692 237.65079308 32.85134506 C242.17279208 32.83053941 246.69448544 32.80235146 251.21630859 32.75683594 C255.58650306 32.71312586 259.95640498 32.68940393 264.3268013 32.67908478 C265.98765284 32.67173828 267.64848978 32.65739302 269.30921555 32.63567352 C282.71477308 32.46744808 292.21022108 34.00760393 302.23828125 43.546875 C307.34972894 49.37428788 310.57614892 56.41259973 310.55772495 64.21134472 C310.55826581 65.03583998 310.55880666 65.86033524 310.5593639 66.7098152 C310.55488505 67.61028856 310.5504062 68.51076191 310.54579163 69.43852234 C310.54508508 70.3993083 310.54437853 71.36009427 310.54365057 72.34999496 C310.5402688 75.57799939 310.52990967 78.8059458 310.51977539 82.03393555 C310.51625997 84.34501573 310.51329266 86.6560968 310.51083374 88.96717834 C310.50515562 93.9490125 310.49714066 98.93083583 310.48781013 103.91266441 C310.47464614 111.7916287 310.47636076 119.67054398 310.48204041 127.54951477 C310.48249894 128.21265193 310.48295748 128.87578909 310.48342992 129.55902132 C310.48577957 132.95043077 310.48829786 136.34184007 310.49093902 139.73324931 C310.4963747 146.7208475 310.50144768 153.70844529 310.50463867 160.69604492 C310.5049653 161.39720721 310.50529193 162.09836949 310.50562846 162.82077912 C310.51013659 174.17620266 310.48935784 185.53145634 310.4601248 196.88683691 C310.43076566 208.55222229 310.43245366 220.21731194 310.46033567 231.88270122 C310.47488948 238.42973681 310.47504536 244.9760687 310.44093513 251.52304649 C310.40911578 257.68344221 310.41456522 263.84268348 310.44843674 270.00305748 C310.45425151 272.26170579 310.44643281 274.5204374 310.42384529 276.77898026 C309.74528893 290.18083275 309.74528893 290.18083275 315.34642029 301.75691223 C316.68964737 302.88393781 318.0525157 303.98834673 319.44140625 305.05859375 C330.11563884 318.43650027 336.77267252 334.75859133 341.44140625 351.05859375 C341.95574219 352.82976562 341.95574219 352.82976562 342.48046875 354.63671875 C349.95773555 386.3626919 343.48778823 421.08841805 327.44140625 449.05859375 C321.94129136 457.75809112 315.55641348 465.62708264 308.44140625 473.05859375 C307.75820313 473.80496094 307.075 474.55132812 306.37109375 475.3203125 C300.10862821 481.94096333 292.99792363 487.03822711 285.44140625 492.05859375 C284.508125 492.68765625 283.57484375 493.31671875 282.61328125 493.96484375 C255.16242378 511.21966845 218.74348431 516.0694783 187.27050781 508.96362305 C154.03803669 500.52156022 124.66437576 480.63441845 106.63330078 451.09814453 C101.935809 443.05987203 97.92385918 435.06243777 95.44140625 426.05859375 C94.40957026 426.06228092 93.37773426 426.06596809 92.31463051 426.069767 C67.19210136 426.15861863 42.06959263 426.22432214 16.94693947 426.26584244 C4.79774003 426.28645573 -7.35135553 426.31455292 -19.50048828 426.36035156 C-30.09134352 426.40025688 -40.68212352 426.42603552 -51.27305186 426.43494773 C-56.87936827 426.44015617 -62.48546943 426.45237253 -68.09171677 426.48151398 C-73.3726995 426.50874129 -78.65337909 426.5170239 -83.93442535 426.51102448 C-85.86853561 426.51212143 -87.8026564 426.52003151 -89.73670578 426.53541565 C-103.30328059 426.638001 -114.16425386 425.75997765 -124.55859375 416.05859375 C-132.92179415 406.91786224 -134.00202351 398.24637545 -133.9462738 386.21817017 C-133.95045062 384.81183141 -133.95593005 383.40549602 -133.96259362 381.99916685 C-133.97702149 378.14854351 -133.97281187 374.2981347 -133.9654268 370.44749975 C-133.96069081 366.28924404 -133.97320882 362.13103445 -133.98344421 357.97279358 C-134.00062931 349.83171357 -134.0014728 341.69071075 -133.99623131 333.54961731 C-133.99218771 326.93136914 -133.99363543 320.31314377 -133.99897957 313.6948967 C-133.99972799 312.75246966 -134.00047641 311.81004263 -134.00124751 310.8390572 C-134.00277901 308.92442978 -134.00431736 307.00980236 -134.00586248 305.09517495 C-134.01958657 287.14504596 -134.01415055 269.19496056 -134.00267727 251.24483256 C-133.99274578 234.8303095 -134.00568428 218.41589918 -134.02961146 202.00139351 C-134.0540059 185.13903518 -134.06360943 168.27672935 -134.05695873 151.41435373 C-134.05346718 141.95059644 -134.05569433 132.48692585 -134.07320976 123.02318192 C-134.08793607 114.96660545 -134.0885616 106.91017672 -134.07113885 98.85360314 C-134.06262986 94.74497553 -134.0604767 90.63661178 -134.07579041 86.52799797 C-134.08965074 82.76262747 -134.08485749 78.99774655 -134.06555117 75.23240428 C-134.06002323 73.23397607 -134.0740515 71.23552286 -134.08890527 69.23714221 C-133.99401052 57.60707985 -131.1043339 49.71727046 -123.07421875 41.26171875 C-116.36641544 35.38718294 -109.02430633 32.89995032 -100.24145508 32.94506836 C-99.49974564 32.94492233 -98.75803619 32.94477631 -97.99385071 32.94462585 C-95.5427457 32.94532241 -93.09171673 32.95310278 -90.640625 32.9609375 C-88.94097434 32.96280259 -87.24132314 32.96422607 -85.54167175 32.96522522 C-81.06839514 32.9690432 -76.59515099 32.97886737 -72.12188721 32.9899292 C-67.55717406 33.00015876 -62.99245568 33.00472615 -58.42773438 33.00976562 C-49.4713399 33.02049026 -40.51496953 33.03755808 -31.55859375 33.05859375 C-31.605 31.85203125 -31.65140625 30.64546875 -31.69921875 29.40234375 C-31.73676662 27.78778539 -31.77316352 26.17319997 -31.80859375 24.55859375 C-31.84210938 23.76710938 -31.875625 22.975625 -31.91015625 22.16015625 C-32.02446247 15.18747686 -30.19382468 10.00742222 -25.5234375 4.78125 C-24.51990234 3.95947266 -24.51990234 3.95947266 -23.49609375 3.12109375 C-22.48869141 2.27224609 -22.48869141 2.27224609 -21.4609375 1.40625 C-15.85110325 -2.56786256 -6.25038654 -2.29976054 0 0 Z " fill="#EAF4FB" transform="translate(150.55859375,0.94140625)"/>
<path d="M0 0 C5.3063536 3.19986162 8.85223815 7.1772999 11.19140625 12.93359375 C12.44140625 18.05859375 12.44140625 18.05859375 12.44140625 33.05859375 C62.60140625 33.05859375 112.76140625 33.05859375 164.44140625 33.05859375 C164.44140625 27.77859375 164.44140625 22.49859375 164.44140625 17.05859375 C165.93881335 10.98577607 168.68993461 6.14755083 173.44140625 2.05859375 C179.92076899 -1.84364587 186.06554684 -1.83493893 193.44140625 -0.94140625 C199.15208895 1.13682043 203.03397793 5.14788822 206.44140625 10.05859375 C208.59605898 15.10856108 208.68498875 19.55177246 208.56640625 24.93359375 C208.55738281 25.71734375 208.54835938 26.50109375 208.5390625 27.30859375 C208.51568688 29.2253943 208.47982278 31.14203566 208.44140625 33.05859375 C209.37133392 33.0497113 210.3012616 33.04082886 211.2593689 33.03167725 C220.05643867 32.95031608 228.85343133 32.89049692 237.65079308 32.85134506 C242.17279208 32.83053941 246.69448544 32.80235146 251.21630859 32.75683594 C255.58650306 32.71312586 259.95640498 32.68940393 264.3268013 32.67908478 C265.98765284 32.67173828 267.64848978 32.65739302 269.30921555 32.63567352 C282.71477308 32.46744808 292.21022108 34.00760393 302.23828125 43.546875 C325.39022127 69.9417286 310.44140625 143.17148413 310.44140625 153.05859375 C163.92140625 153.05859375 17.40140625 153.05859375 -133.55859375 153.05859375 C-133.55859375 52.30155733 -133.55859375 52.30155733 -123.07421875 41.26171875 C-116.36641544 35.38718294 -109.02430633 32.89995032 -100.24145508 32.94506836 C-99.49974564 32.94492233 -98.75803619 32.94477631 -97.99385071 32.94462585 C-95.5427457 32.94532241 -93.09171673 32.95310278 -90.640625 32.9609375 C-88.94097434 32.96280259 -87.24132314 32.96422607 -85.54167175 32.96522522 C-81.06839514 32.9690432 -76.59515099 32.97886737 -72.12188721 32.9899292 C-67.55717406 33.00015876 -62.99245568 33.00472615 -58.42773438 33.00976562 C-49.4713399 33.02049026 -40.51496953 33.03755808 -31.55859375 33.05859375 C-31.605 31.85203125 -31.65140625 30.64546875 -31.69921875 29.40234375 C-31.73676662 27.78778539 -31.77316352 26.17319997 -31.80859375 24.55859375 C-31.84210938 23.76710938 -31.875625 22.975625 -31.91015625 22.16015625 C-32.02446247 15.18747686 -30.19382468 10.00742222 -25.5234375 4.78125 C-24.51990234 3.95947266 -24.51990234 3.95947266 -23.49609375 3.12109375 C-22.48869141 2.27224609 -22.48869141 2.27224609 -21.4609375 1.40625 C-15.85110325 -2.56786256 -6.25038654 -2.29976054 0 0 Z " fill="#FE4055" transform="translate(150.55859375,0.94140625)"/>
<path d="M0 0 C1.66847291 1.41115972 3.31299166 2.85094389 4.9375 4.3125 C5.41574219 4.74159668 5.89398438 5.17069336 6.38671875 5.61279297 C23.40704099 21.107193 35.58632062 43.26510483 37.08007812 66.53344727 C38.11887516 92.45832323 32.00233473 116.71605732 14.5 136.5 C12.98595643 138.11057654 11.46544367 139.71510435 9.9375 141.3125 C9.01710938 142.34503906 9.01710938 142.34503906 8.078125 143.3984375 C-6.55043362 159.21478506 -29.85518971 168.64098446 -51.07421875 169.5859375 C-77.53197589 170.25865173 -101.52162646 162.51507544 -121.2890625 144.42578125 C-139.80152231 126.82302463 -150.67271494 103.03790531 -151.39916992 77.48828125 C-151.74366532 51.75425527 -142.72050269 28.73124707 -124.8125 10.09765625 C-91.48612059 -23.65477063 -38.39549639 -29.56330552 0 0 Z " fill="#EAF4FB" transform="translate(424.0625,308.6875)"/>
<path d="M0 0 C1.62035156 -0.02900391 1.62035156 -0.02900391 3.2734375 -0.05859375 C7.99182357 -0.02946791 11.11461947 0.10576232 15.23046875 2.51953125 C17.7944947 7.01931189 17.54585575 10.85752487 17.3125 15.9375 C17.28994141 16.86884766 17.26738281 17.80019531 17.24414062 18.75976562 C17.18542078 21.0498396 17.10336858 23.33657875 17 25.625 C17.95777344 24.9959375 18.91554688 24.366875 19.90234375 23.71875 C35.55444908 13.58834303 50.74532817 6.60822478 69 2.625 C70.57201172 2.25568359 70.57201172 2.25568359 72.17578125 1.87890625 C90.47592322 -1.71178466 110.104453 -0.18432722 128 4.625 C129.26328125 4.95242188 130.5265625 5.27984375 131.828125 5.6171875 C148.3897013 10.52830428 163.94876327 19.38141379 177 30.625 C178.48886719 31.88957031 178.48886719 31.88957031 180.0078125 33.1796875 C185.0114827 37.5422189 185.0114827 37.5422189 187 39.625 C187 40.285 187 40.945 187 41.625 C187.55171875 41.82609375 188.1034375 42.0271875 188.671875 42.234375 C191.92667962 44.17852004 193.96990703 46.91355502 196.25 49.875 C196.73380127 50.50269287 197.21760254 51.13038574 197.71606445 51.77709961 C219.14755082 80.15262872 226.05386468 115.67851825 221.3046875 150.5625 C216.9404847 176.5339996 204.0851576 199.7353425 186 218.625 C184.97519531 219.74455078 184.97519531 219.74455078 183.9296875 220.88671875 C177.66722196 227.50736958 170.55651738 232.60463336 163 237.625 C162.06671875 238.2540625 161.1334375 238.883125 160.171875 239.53125 C132.72101753 256.7860747 96.30207806 261.63588455 64.82910156 254.5300293 C31.58337095 246.08459815 2.21180733 226.19023674 -15.81689453 196.63818359 C-21.65803372 186.69884521 -26.02229209 176.79503601 -29 165.625 C-29.27457031 164.72652344 -29.54914063 163.82804688 -29.83203125 162.90234375 C-33.4324908 150.85942734 -34.18357421 138.92997765 -34.25 126.4375 C-34.25926514 125.35718506 -34.26853027 124.27687012 -34.27807617 123.16381836 C-34.15179061 90.639096 -18.66380102 61.10003684 3 37.625 C3.99 36.965 4.98 36.305 6 35.625 C4.12054688 35.58632813 4.12054688 35.58632813 2.203125 35.546875 C0.55204877 35.49058831 -1.09899155 35.4332411 -2.75 35.375 C-3.575 35.36082031 -4.4 35.34664063 -5.25 35.33203125 C-11.3990848 35.08408428 -11.3990848 35.08408428 -14.515625 32.703125 C-17.9449819 27.90202534 -17.29806471 23.05117322 -17.375 17.3125 C-17.41238281 16.26642578 -17.44976562 15.22035156 -17.48828125 14.14257812 C-17.54088244 9.55166344 -17.48229357 6.49291596 -15.2265625 2.43359375 C-10.2525149 -0.35452252 -5.60632664 -0.10035191 0 0 Z M22.375 67.375 C5.33219239 86.85249441 -1.44779557 110.66819507 -0.18017578 136.04785156 C1.61224266 161.68575002 14.77141082 184.84890388 34 201.625 C55.48523963 218.50217937 80.1675788 225.14870661 107.27734375 222.39355469 C125.21132185 219.99501225 142.59754363 211.68307417 156 199.625 C156.47824219 199.19590332 156.95648438 198.76680664 157.44921875 198.32470703 C175.98163764 181.45377428 187.07100977 158.40032669 188.34375 133.27734375 C189.11389237 105.85185588 179.61020505 82.09951804 160.86987305 62.10961914 C144.26183582 44.9211279 120.95304454 34.7946241 97.07055664 34.33227539 C67.00976388 34.13045822 43.10002105 45.4808752 22.375 67.375 Z " fill="#4FABF6" transform="translate(273,255.375)"/>
<path d="M0 0 C4.12475481 -0.11751438 8.24907118 -0.18768824 12.375 -0.25 C13.53128906 -0.28351562 14.68757813 -0.31703125 15.87890625 -0.3515625 C27.57659219 -0.48373974 35.30621597 2.4114751 43.796875 10.48828125 C66.94881502 36.88313485 52 110.11289038 52 120 C-94.52 120 -241.04 120 -392 120 C-392 106.14 -392 92.28 -392 78 C-253.4 78 -114.8 78 28 78 C31.04112248 39.40497332 31.04112248 39.40497332 16.37109375 9.1328125 C11.55111602 4.79721474 6.15444858 2.84633457 0 1 C0 0.67 0 0.34 0 0 Z " fill="#FE4357" transform="translate(409,34)"/>
<path d="M0 0 C4.12475481 -0.11751438 8.24907118 -0.18768824 12.375 -0.25 C13.53128906 -0.28351562 14.68757813 -0.31703125 15.87890625 -0.3515625 C27.57659219 -0.48373974 35.30621597 2.4114751 43.796875 10.48828125 C48.85529175 16.2552351 52.13070176 23.28070048 52.12025452 31.01165771 C52.12231651 32.19368019 52.12231651 32.19368019 52.12442017 33.39958191 C52.12082489 34.25481949 52.11722961 35.11005707 52.11352539 35.99121094 C52.11367142 36.89887711 52.11381744 37.80654327 52.1139679 38.74171448 C52.11327171 41.73929237 52.10549302 44.73680798 52.09765625 47.734375 C52.09579103 49.8137407 52.09436762 51.89310685 52.09336853 53.97247314 C52.08955157 59.44363622 52.07972826 64.91477272 52.06866455 70.38592529 C52.05843281 75.96951946 52.05386713 81.55311791 52.04882812 87.13671875 C52.03810528 98.09115938 52.02051509 109.04557332 52 120 C44.08 120 36.16 120 28 120 C28 111.09 28 102.18 28 93 C-110.6 93 -249.2 93 -392 93 C-392 88.05 -392 83.1 -392 78 C-253.4 78 -114.8 78 28 78 C31.04112248 39.40497332 31.04112248 39.40497332 16.37109375 9.1328125 C11.55111602 4.79721474 6.15444858 2.84633457 0 1 C0 0.67 0 0.34 0 0 Z " fill="#E80054" transform="translate(409,34)"/>
<path d="M0 0 C0.33 0 0.66 0 1 0 C1.20625 1.27875 1.4125 2.5575 1.625 3.875 C3.66414662 12.81911895 8.34555966 19.30039976 15.76171875 24.59765625 C22.87357753 29.05342815 29.58819388 30.14713251 37.89033508 30.15821838 C38.67864926 30.16315636 39.46696344 30.16809434 40.27916592 30.17318195 C42.91698419 30.18852303 45.55477818 30.19690838 48.19262695 30.20532227 C50.08496819 30.21490345 51.97730729 30.22491368 53.86964417 30.23532104 C59.00553429 30.26235007 64.14143359 30.2833705 69.27735543 30.30332303 C74.64522233 30.32519491 80.01306102 30.35257773 85.38090515 30.37937927 C95.54510582 30.42928988 105.70932215 30.47423478 115.87355345 30.51740164 C127.44541466 30.56678794 139.01724757 30.62170091 150.58908141 30.67708123 C174.39269453 30.79087623 198.19633481 30.8977207 222 31 C222.20296692 32.01864136 222.20296692 32.01864136 222.41003418 33.05786133 C222.58860962 33.9527124 222.76718506 34.84756348 222.95117188 35.76953125 C223.12773315 36.65487549 223.30429443 37.54021973 223.48620605 38.45239258 C224.12931466 41.64119673 224.81021457 44.82098889 225.5 48 C226.38325321 52.07064525 227.2342014 56.14562592 228.04882812 60.23046875 C228.22740356 61.12531982 228.405979 62.0201709 228.58996582 62.94213867 C228.79293274 63.96078003 228.79293274 63.96078003 229 65 C202.83521387 65.09349748 176.67045283 65.16400583 150.50553322 65.20724869 C138.35633378 65.22786198 126.20723822 65.25595917 114.05810547 65.30175781 C103.46725023 65.34166313 92.87647023 65.36744177 82.28554189 65.37635398 C76.67922548 65.38156242 71.07312432 65.39377878 65.46687698 65.42292023 C60.18589425 65.45014754 54.90521466 65.45843015 49.6241684 65.45243073 C47.69005814 65.45352768 45.75593735 65.46143776 43.82188797 65.4768219 C30.25531316 65.57940725 19.39433989 64.7013839 9 55 C2.07286675 47.42884756 -0.48584721 39.79972577 -0.29296875 29.6875 C-0.28872391 28.83317383 -0.28447906 27.97884766 -0.28010559 27.09863281 C-0.26345703 24.39875318 -0.22583223 21.69964989 -0.1875 19 C-0.17243523 17.15756295 -0.15874998 15.31511407 -0.14648438 13.47265625 C-0.11359906 8.98147661 -0.06191456 4.49086944 0 0 Z " fill="#D2DBFB" transform="translate(17,362)"/>
<path d="M0 0 C14.87651668 -0.52638736 28.57738463 0.20876689 43 4 C44.26714844 4.32742188 45.53429687 4.65484375 46.83984375 4.9921875 C63.39679771 9.91792625 78.94789004 18.7556615 92 30 C92.99257813 30.84304688 93.98515625 31.68609375 95.0078125 32.5546875 C100.0114827 36.9172189 100.0114827 36.9172189 102 39 C102 39.66 102 40.32 102 41 C102.55171875 41.20109375 103.1034375 41.4021875 103.671875 41.609375 C106.92667962 43.55352004 108.96990703 46.28855502 111.25 49.25 C111.73380127 49.87769287 112.21760254 50.50538574 112.71606445 51.15209961 C134.14755082 79.52762872 141.05386468 115.05351825 136.3046875 149.9375 C131.9404847 175.9089996 119.0851576 199.1103425 101 218 C100.31679688 218.74636719 99.63359375 219.49273437 98.9296875 220.26171875 C92.66722196 226.88236958 85.55651738 231.97963336 78 237 C77.06671875 237.6290625 76.1334375 238.258125 75.171875 238.90625 C51.33160119 253.89156497 25.49894221 256.807696 -2 256 C-2 255.67 -2 255.34 -2 255 C-1.07703125 254.85304688 -0.1540625 254.70609375 0.796875 254.5546875 C25.81455013 250.35628156 48.59515852 241.71268627 68 225 C68.9384375 224.22269531 69.876875 223.44539062 70.84375 222.64453125 C93.98742146 202.71887029 109.52531831 171.87255017 111.84619141 141.47509766 C114.22011476 103.27377235 104.24911567 70.49231382 79.16430664 41.45703125 C69.18080593 30.23483359 57.27271205 21.88721485 44 15 C42.98808594 14.46761719 41.97617187 13.93523437 40.93359375 13.38671875 C28.30230519 7.14366808 13.97367912 2.85888392 0 1 C0 0.67 0 0.34 0 0 Z " fill="#1987EA" transform="translate(358,256)"/>
<path d="M0 0 C27.69643495 -0.70387134 52.6428813 3.78518488 74 23 C74.47824219 23.42909668 74.95648438 23.85819336 75.44921875 24.30029297 C92.46954099 39.794693 104.64882062 61.95260483 106.14257812 85.22094727 C107.18137516 111.14582323 101.06483473 135.40355732 83.5625 155.1875 C82.04845643 156.79807654 80.52794367 158.40260435 79 160 C78.38640625 160.68835938 77.7728125 161.37671875 77.140625 162.0859375 C63.71573887 176.60087848 42.42201505 185.98058559 23 188 C19.01961705 188.11160288 15.04401931 188.09462896 11.0625 188.0625 C9.46438477 188.05573242 9.46438477 188.05573242 7.83398438 188.04882812 C5.22259709 188.03711787 2.61132876 188.02071724 0 188 C3.66839263 186.0562361 7.11813349 185.24846483 11.1875 184.375 C25.69924315 180.95131348 40.23437619 174.10897774 50.6953125 163.23828125 C52 162 52 162 54 162 C54 161.34 54 160.68 54 160 C54.66 160 55.32 160 56 160 C56.38478516 159.13955078 56.38478516 159.13955078 56.77734375 158.26171875 C58.1201079 155.77781958 59.70246334 153.93557214 61.5625 151.8125 C71.07096795 140.02199975 76.46130465 126.59711833 80 112 C80.20109375 111.22527344 80.4021875 110.45054687 80.609375 109.65234375 C84.42686228 83.73160513 78.09937856 59.04820073 63 38 C62.31164062 37.03191406 61.62328125 36.06382812 60.9140625 35.06640625 C46.35430941 15.9871759 23.38882832 4.68717999 0 1 C0 0.67 0 0.34 0 0 Z " fill="#D2DBFA" transform="translate(355,290)"/>
<path d="M0 0 C6.06273594 3.65597876 9.85831697 8.41649436 11.86328125 15.21020508 C12.52241777 18.45773287 12.57228971 21.40450799 12.5390625 24.71875 C12.53373001 25.36496811 12.52839752 26.01118622 12.52290344 26.67698669 C12.50275543 28.80432974 12.47238217 30.93138285 12.44140625 33.05859375 C12.42453791 34.5572905 12.40777535 36.05598844 12.39111328 37.5546875 C12.34265606 41.45087549 12.26718649 45.34597779 12.17895508 49.24145508 C12.14525261 50.84388426 12.11737042 52.44644523 12.0949707 54.04907227 C12.06138107 56.40820768 12.00920687 58.76630496 11.953125 61.125 C11.94354012 62.18914879 11.94354012 62.18914879 11.9337616 63.27479553 C11.73384151 70.06073735 9.14265071 75.23028863 4.44140625 80.05859375 C-0.99172316 84.18723417 -6.66532987 84.79178562 -13.36328125 84.57421875 C-19.86879322 83.52442953 -23.93382968 80.05830338 -27.99609375 75.05859375 C-31.58531023 68.16729811 -31.87848909 62.234379 -31.89453125 54.59765625 C-31.90118805 53.49312103 -31.90784485 52.38858582 -31.91470337 51.25057983 C-31.92480756 48.91902323 -31.92952108 46.58743785 -31.92919922 44.25585938 C-31.93357032 40.70263687 -31.96990987 37.15065908 -32.0078125 33.59765625 C-32.01368162 31.32682714 -32.01765038 29.05599216 -32.01953125 26.78515625 C-32.03390228 25.72970612 -32.04827332 24.67425598 -32.06307983 23.58682251 C-32.01640534 15.99324127 -30.64238183 10.50935853 -25.5234375 4.78125 C-24.85441406 4.23339844 -24.18539062 3.68554688 -23.49609375 3.12109375 C-22.82449219 2.55519531 -22.15289062 1.98929687 -21.4609375 1.40625 C-15.85110325 -2.56786256 -6.25038654 -2.29976054 0 0 Z " fill="#D3DCFA" transform="translate(150.55859375,0.94140625)"/>
<path d="M0 0 C5.11509567 3.0203422 9.16465378 7.11780318 11.60009766 12.57910156 C12.84377795 17.48955339 12.81332615 22.21025279 12.82421875 27.2578125 C12.83087555 28.33540833 12.83753235 29.41300415 12.84439087 30.52325439 C12.85449555 32.7993398 12.85920857 35.07545469 12.85888672 37.3515625 C12.86324904 40.8104006 12.89956366 44.26795079 12.9375 47.7265625 C12.94337097 49.94530817 12.94733849 52.16405986 12.94921875 54.3828125 C12.96358978 55.40606628 12.97796082 56.42932007 12.99276733 57.48358154 C12.94614074 64.91651722 11.90698138 72.3463513 6.70883179 78.03240967 C0.4814986 83.65522354 -4.58011322 84.67236567 -12.95703125 84.515625 C-18.48580305 83.84731193 -21.62219535 81.96306781 -25.51171875 78.0859375 C-31.63088763 69.89956539 -31.29006186 60.69461623 -31.32421875 50.9609375 C-31.34743379 49.45569404 -31.37281325 47.95048236 -31.40039062 46.4453125 C-31.46204292 42.73078701 -31.4891331 39.01708178 -31.50146484 35.30209351 C-31.51185822 33.05579499 -31.53524505 30.80989648 -31.56054688 28.5637207 C-31.57199187 27.12711884 -31.58307457 25.69051404 -31.59375 24.25390625 C-31.60510986 22.98313232 -31.61646973 21.7123584 -31.62817383 20.40307617 C-31.38495364 13.47512508 -28.72545402 8.84219114 -24.3046875 3.62890625 C-17.67062764 -2.08014308 -8.13468176 -2.9603663 0 0 Z " fill="#D3DBF9" transform="translate(346.51171875,0.9140625)"/>
<path d="M0 0 C7.92 0 15.84 0 24 0 C24 47.19 24 94.38 24 143 C19.11900056 138.81628619 14.34455568 134.60081536 9.625 130.24609375 C7.26301562 128.0473389 7.26301562 128.0473389 5.24034023 127.10381031 C3.07380682 125.93216642 1.61489288 124.87166203 0 123 C-1.03613845 119.0580734 -0.88480957 115.19604582 -0.79467773 111.14135742 C-0.79569992 109.94093811 -0.79672211 108.7405188 -0.79777527 107.50372314 C-0.79373932 104.2202268 -0.75868993 100.93883046 -0.70975757 97.65575194 C-0.66593758 94.22187322 -0.6618818 90.78795124 -0.65357971 87.35383606 C-0.63184016 80.85477599 -0.57442214 74.35654216 -0.50413328 67.8578456 C-0.42583596 60.45774561 -0.38739008 53.05760572 -0.35226524 45.6571945 C-0.27913626 30.43756999 -0.15078899 15.21908332 0 0 Z " fill="#D3DCFB" transform="translate(437,154)"/>
<path d="M0 0 C6.19499394 3.16953179 8.64239947 7.53299529 11 14 C11.64866872 17.87390911 11.68034563 21.64115091 11.62890625 25.5625 C11.63131821 26.63443604 11.63373016 27.70637207 11.63621521 28.81079102 C11.63524159 31.06302615 11.62196507 33.31528668 11.59692383 35.56738281 C11.56258954 38.99107149 11.57630018 42.4121772 11.59570312 45.8359375 C11.58880393 48.03646919 11.5791309 50.23699429 11.56640625 52.4375 C11.57136612 53.44820557 11.57632599 54.45891113 11.58143616 55.50024414 C11.45185618 63.4208974 9.74224495 70.19624088 5.0625 76.6875 C3 78 3 78 0.5625 78.25 C-3.4172132 76.30867649 -5.04411639 72.86663144 -7 69 C-8.16796315 65.49611055 -8.22923218 62.26405969 -8.31640625 58.61328125 C-8.33718735 57.8786113 -8.35796844 57.14394135 -8.37937927 56.38700867 C-8.4226435 54.82438901 -8.46368546 53.2617065 -8.50268555 51.69897461 C-8.56115396 49.36620418 -8.62660175 47.0337181 -8.69335938 44.70117188 C-8.9008308 37.18218173 -9.05057259 29.66241655 -9.09765625 22.140625 C-9.10676025 20.87379883 -9.11586426 19.60697266 -9.12524414 18.30175781 C-8.82817891 10.47035384 -5.31423017 5.50340988 0 0 Z " fill="#EAF4FB" transform="translate(324,3)"/>
<path d="M0 0 C0.66 0.33 1.32 0.66 2 1 C1.731875 1.53625 1.46375 2.0725 1.1875 2.625 C0.70583395 5.33014519 0.70583395 5.33014519 3.375 8.0625 C4.24125 9.031875 5.1075 10.00125 6 11 C7.00711355 14.02134065 7.14411241 16.10093311 7.17700195 19.26245117 C7.18983719 20.3375444 7.20267242 21.41263763 7.21589661 22.52030945 C7.22328354 23.68278702 7.23067047 24.84526459 7.23828125 26.04296875 C7.246353 27.24053299 7.25442474 28.43809723 7.26274109 29.67195129 C7.27658179 32.20975293 7.287304 34.74757319 7.29516602 37.28540039 C7.31235484 41.15482186 7.35624032 45.02338371 7.40039062 48.89257812 C7.41051976 51.35936872 7.41903517 53.82616658 7.42578125 56.29296875 C7.44328934 57.44532516 7.46079742 58.59768158 7.47883606 59.78495789 C7.45868012 67.30048678 6.54480304 72.93621279 1.51338196 78.70426941 C0 80 0 80 -2.375 80.125 C-7.01033618 78.13842735 -9.09479483 74.08376333 -11.04858398 69.58618164 C-12.38355848 64.5542493 -12.32504421 59.72471213 -12.3359375 54.5390625 C-12.3425943 53.43452728 -12.3492511 52.32999207 -12.35610962 51.19198608 C-12.36621381 48.86042948 -12.37092733 46.5288441 -12.37060547 44.19726562 C-12.37497657 40.64404312 -12.41131612 37.09206533 -12.44921875 33.5390625 C-12.45508787 31.26823339 -12.45905663 28.99739841 -12.4609375 26.7265625 C-12.47530853 25.67111237 -12.48967957 24.61566223 -12.50448608 23.52822876 C-12.45764287 15.90719883 -11.10850678 10.35809492 -5.859375 4.6875 C-5.16328125 4.130625 -4.4671875 3.57375 -3.75 3 C-2.69039062 2.13375 -2.69039062 2.13375 -1.609375 1.25 C-1.07828125 0.8375 -0.5471875 0.425 0 0 Z " fill="#EBF2F9" transform="translate(131,1)"/>
<path d="M0 0 C1.56911133 -0.04350586 1.56911133 -0.04350586 3.16992188 -0.08789062 C10.88474716 -0.15173068 10.88474716 -0.15173068 14.85546875 2.14453125 C18.69823493 6.69194113 17.90696712 12.03891782 17.9375 17.6875 C17.958125 18.63367188 17.97875 19.57984375 18 20.5546875 C18.050313 29.51040062 18.050313 29.51040062 14.6875 33.3125 C9.98766094 36.19801828 5.10473986 35.68055031 -0.25 35.6875 C-1.23935547 35.71199219 -2.22871094 35.73648438 -3.24804688 35.76171875 C-10.52373596 35.79107594 -10.52373596 35.79107594 -14.44140625 33.4140625 C-18.48665702 28.87054493 -17.57178186 23.82206497 -17.625 18 C-17.65400391 16.95392578 -17.68300781 15.90785156 -17.71289062 14.83007812 C-17.77694683 7.08913172 -17.77694683 7.08913172 -15.41796875 3.14453125 C-10.84112111 -0.83792059 -5.81637881 0.05316617 0 0 Z " fill="#2F468F" transform="translate(68.3125,323.6875)"/>
<path d="M0 0 C1.56911133 -0.04350586 1.56911133 -0.04350586 3.16992188 -0.08789062 C10.91086828 -0.15194683 10.91086828 -0.15194683 14.85546875 2.20703125 C18.76002937 6.69436212 17.90838099 11.42131348 17.9375 17.125 C17.958125 18.12337891 17.97875 19.12175781 18 20.15039062 C18.05025047 29.57863518 18.05025047 29.57863518 14.6875 33.3125 C10.08686546 36.11574957 5.48526771 35.64284345 0.25 35.625 C-0.69166016 35.64111328 -1.63332031 35.65722656 -2.60351562 35.67382812 C-11.48879323 35.68009861 -11.48879323 35.68009861 -15.3125 32.3125 C-18.19861426 27.61337135 -17.68055094 22.72924911 -17.6875 17.375 C-17.71199219 16.38564453 -17.73648438 15.39628906 -17.76171875 14.37695312 C-17.79107594 7.10126404 -17.79107594 7.10126404 -15.4140625 3.18359375 C-10.87054493 -0.86165702 -5.82206497 0.05321814 0 0 Z " fill="#2D458E" transform="translate(136.3125,323.6875)"/>
<path d="M0 0 C1.04091797 0.00580078 2.08183594 0.01160156 3.15429688 0.01757812 C11.91984548 0.15850334 11.91984548 0.15850334 15.4375 2.4375 C18.53650079 7.08600119 17.80607454 11.8444342 17.8125 17.3125 C17.83699219 18.40175781 17.86148438 19.49101562 17.88671875 20.61328125 C17.91606263 28.60459738 17.91606263 28.60459738 15.6015625 32.6328125 C11.07388974 36.40859736 5.73338899 35.72873587 0.125 35.8125 C-1.28168945 35.86857422 -1.28168945 35.86857422 -2.71679688 35.92578125 C-6.88051275 35.97859794 -10.59066394 35.97532087 -14.1875 33.6953125 C-17.59697907 30.26085779 -17.32038371 25.95249413 -17.33398438 21.35546875 C-17.30626953 20.22753906 -17.27855469 19.09960938 -17.25 17.9375 C-17.26482422 16.80957031 -17.27964844 15.68164062 -17.29492188 14.51953125 C-17.24687298 9.74290607 -17.09630426 6.39170375 -14.7421875 2.18359375 C-9.89322379 -0.47916642 -5.43616452 -0.17230851 0 0 Z " fill="#2C448D" transform="translate(204.5625,323.5625)"/>
<path d="M0 0 C1.08023438 -0.01095703 2.16046875 -0.02191406 3.2734375 -0.03320312 C11.12729345 0.03951776 11.12729345 0.03951776 15.1875 2.47265625 C19.05127694 6.92765768 18.29516486 11.65146304 18.375 17.3125 C18.43107422 18.7975 18.43107422 18.7975 18.48828125 20.3125 C18.58738287 28.54894578 18.58738287 28.54894578 16.26171875 32.2265625 C12.81519055 35.61193867 8.45278357 35.2905583 3.86914062 35.28515625 C2.73669922 35.25292969 1.60425781 35.22070312 0.4375 35.1875 C-0.69880859 35.19394531 -1.83511719 35.20039063 -3.00585938 35.20703125 C-11.35730886 35.09863486 -11.35730886 35.09863486 -14.29272461 32.64990234 C-18.08691232 28.0109341 -17.29761192 23.02244705 -17.375 17.25 C-17.41238281 16.20392578 -17.44976562 15.15785156 -17.48828125 14.08007812 C-17.54089826 9.48778281 -17.48083319 6.42884703 -15.2265625 2.3671875 C-10.25127147 -0.4156024 -5.60286077 -0.12369084 0 0 Z " fill="#2C448D" transform="translate(68,255.4375)"/>
<path d="M0 0 C1.70446289 -0.01643555 1.70446289 -0.01643555 3.44335938 -0.03320312 C11.81145431 0.04085081 11.81145431 0.04085081 14.73022461 2.47290039 C18.36884118 6.92634229 17.65780809 11.33374753 17.6875 16.875 C17.708125 17.82568359 17.72875 18.77636719 17.75 19.75585938 C17.79959388 28.62696487 17.79959388 28.62696487 14.4375 32.5625 C9.88953906 35.59447396 5.41341978 34.93092639 0.0625 34.9375 C-0.9790625 34.96199219 -2.020625 34.98648438 -3.09375 35.01171875 C-10.76475474 35.04114716 -10.76475474 35.04114716 -14.7265625 32.6640625 C-18.71271198 28.10119352 -17.8596185 23.05925188 -17.9375 17.25 C-17.97488281 16.20392578 -18.01226562 15.15785156 -18.05078125 14.08007812 C-18.10314819 9.50960763 -18.03227377 6.4260392 -15.82421875 2.3671875 C-10.69053115 -0.47324804 -5.76546072 -0.12141266 0 0 Z " fill="#2C448D" transform="translate(341.5625,187.4375)"/>
<path d="M0 0 C1.70542969 -0.04930664 1.70542969 -0.04930664 3.4453125 -0.09960938 C8.26189755 -0.13070235 11.62311888 -0.1193679 15.87890625 2.24609375 C18.52762411 7.08726264 18.3128911 11.50840415 18.1875 16.9375 C18.19845703 17.97003906 18.20941406 19.00257813 18.22070312 20.06640625 C18.17613868 24.67139935 18.13300983 27.59808908 15.71484375 31.59375 C11.16791054 35.60524995 6.11830081 34.69693052 0.3125 34.75 C-0.73357422 34.77900391 -1.77964844 34.80800781 -2.85742188 34.83789062 C-10.59836828 34.90194683 -10.59836828 34.90194683 -14.54296875 32.54296875 C-18.46345134 28.0373395 -17.55886391 23.28570556 -17.5625 17.5625 C-17.57474609 16.55574219 -17.58699219 15.54898438 -17.59960938 14.51171875 C-17.60154297 13.54105469 -17.60347656 12.57039062 -17.60546875 11.5703125 C-17.60957764 10.68230957 -17.61368652 9.79430664 -17.61791992 8.87939453 C-17.35395538 6.22595401 -16.82414764 4.66626192 -15.375 2.4375 C-10.62534302 -0.72893799 -5.5864351 0.02830964 0 0 Z " fill="#2B438D" transform="translate(136.375,187.5625)"/>
<path d="M0 0 C1.10214844 -0.02900391 2.20429688 -0.05800781 3.33984375 -0.08789062 C4.40074219 -0.09626953 5.46164063 -0.10464844 6.5546875 -0.11328125 C7.52647949 -0.12786377 8.49827148 -0.14244629 9.49951172 -0.1574707 C12.85715139 0.44355741 13.99821085 1.70928827 16.125 4.3125 C18.0499866 8.16247321 17.35337952 12.8900888 17.375 17.125 C17.395625 18.12337891 17.41625 19.12175781 17.4375 20.15039062 C17.48690603 29.42019618 17.48690603 29.42019618 14.125 33.3125 C9.90184963 35.42407519 4.4527079 34.67478143 -0.1875 34.75 C-1.32896484 34.79576172 -2.47042969 34.84152344 -3.64648438 34.88867188 C-11.55718308 34.9950109 -11.55718308 34.9950109 -14.76293945 33.3347168 C-17.76641667 30.3569332 -18.20226604 27.20421627 -18.50390625 23.08984375 C-18.50786571 21.14310734 -18.48502998 19.19616012 -18.4375 17.25 C-18.44845703 16.26966797 -18.45941406 15.28933594 -18.47070312 14.27929688 C-18.42509282 9.80036447 -18.33841639 7.06969774 -15.96484375 3.19140625 C-11.33900811 -0.96752261 -5.9418269 0.05175807 0 0 Z " fill="#2B438D" transform="translate(136.875,255.6875)"/>
<path d="M0 0 C1.12792969 -0.02771484 2.25585938 -0.05542969 3.41796875 -0.08398438 C12.61567019 -0.05677224 12.61567019 -0.05677224 15.75 3.0703125 C18.49498415 7.40731021 18.15149568 12.28851655 18 17.25 C18.00386719 18.64895508 18.00386719 18.64895508 18.0078125 20.07617188 C17.93721435 25.02863223 17.81569306 28.73838444 14.5 32.6875 C9.95203906 35.71947396 5.47591978 35.05592639 0.125 35.0625 C-0.9165625 35.08699219 -1.958125 35.11148438 -3.03125 35.13671875 C-10.70225474 35.16614716 -10.70225474 35.16614716 -14.6640625 32.7890625 C-18.65021198 28.22619352 -17.7971185 23.18425188 -17.875 17.375 C-17.91238281 16.32892578 -17.94976562 15.28285156 -17.98828125 14.20507812 C-18.04064428 9.63494955 -17.97390192 6.55454926 -15.7578125 2.5 C-10.64265123 -0.34584512 -5.75605121 -0.07565096 0 0 Z " fill="#2C448D" transform="translate(68.5,187.3125)"/>
<path d="M0 0 C1.62035156 -0.03577148 1.62035156 -0.03577148 3.2734375 -0.07226562 C7.92293604 -0.06365544 11.10648208 0.06573882 15.2109375 2.34765625 C17.97636366 7.31697008 17.72510067 11.9702091 17.625 17.5625 C17.64433594 18.64273437 17.66367188 19.72296875 17.68359375 20.8359375 C17.6549143 25.48200765 17.49419646 28.67553605 15.2109375 32.7734375 C10.24447154 35.54064116 5.59042566 35.28756729 0 35.1875 C-1.62035156 35.21650391 -1.62035156 35.21650391 -3.2734375 35.24609375 C-7.89800813 35.21754702 -11.11519271 35.04580714 -15.2109375 32.80859375 C-18.03594931 27.68286271 -17.72324292 22.75376018 -17.625 17 C-17.64433594 15.86369141 -17.66367188 14.72738281 -17.68359375 13.55664062 C-17.63628476 5.53776615 -17.63628476 5.53776615 -15.2109375 1.8203125 C-10.1767323 -0.15172409 -5.35831365 -0.05435044 0 0 Z " fill="#2B428C" transform="translate(205,255.4375)"/>
<path d="M0 0 C1.69866211 -0.03577148 1.69866211 -0.03577148 3.43164062 -0.07226562 C8.20791813 -0.063822 11.58262638 0.02362846 15.80859375 2.34765625 C18.52344897 7.32388308 18.28733261 11.98518492 18.1875 17.5625 C18.20683594 18.64273438 18.22617188 19.72296875 18.24609375 20.8359375 C18.2174143 25.48200765 18.05669646 28.67553605 15.7734375 32.7734375 C10.80697154 35.54064116 6.15292566 35.28756729 0.5625 35.1875 C-1.05785156 35.21650391 -1.05785156 35.21650391 -2.7109375 35.24609375 C-7.33683737 35.21753881 -10.55434008 35.04432115 -14.65234375 32.80859375 C-17.47156069 27.68218394 -17.12108157 22.74973857 -17 17 C-17.01095703 15.86369141 -17.02191406 14.72738281 -17.03320312 13.55664062 C-16.9599931 5.28390794 -16.9599931 5.28390794 -14.75732422 2.24267578 C-10.39197462 -0.91900975 -5.20328953 -0.05017352 0 0 Z " fill="#2B438C" transform="translate(204.4375,187.4375)"/>
<path d="M0 0 C1.70446289 -0.01643555 1.70446289 -0.01643555 3.44335938 -0.03320312 C11.71609206 0.0400069 11.71609206 0.0400069 14.75732422 2.24267578 C17.91900975 6.60802538 17.05017352 11.79671047 17 17 C17.03577148 18.69866211 17.03577148 18.69866211 17.07226562 20.43164062 C17.06382368 25.20696505 16.97359131 28.58436849 14.65625 32.8125 C9.66182896 35.52791338 4.96608671 35.24791753 -0.625 35.125 C-1.71361328 35.13595703 -2.80222656 35.14691406 -3.92382812 35.15820312 C-11.94011904 35.08420659 -11.94011904 35.08420659 -14.84155273 32.65209961 C-18.65600499 28.02053529 -17.86005645 23.02658505 -17.9375 17.25 C-17.97488281 16.20392578 -18.01226562 15.15785156 -18.05078125 14.08007812 C-18.10314819 9.50960763 -18.03227377 6.4260392 -15.82421875 2.3671875 C-10.69053115 -0.47324804 -5.76546072 -0.12141266 0 0 Z " fill="#2A428C" transform="translate(273.5625,187.4375)"/>
<path d="M0 0 C1.69866211 -0.03577148 1.69866211 -0.03577148 3.43164062 -0.07226562 C8.22823004 -0.06378609 11.58283137 0.01496885 15.8125 2.37890625 C18.47025473 7.21388416 18.25034724 11.63530319 18.125 17.0625 C18.13595703 18.09503906 18.14691406 19.12757813 18.15820312 20.19140625 C18.11363868 24.79639935 18.07050983 27.72308908 15.65234375 31.71875 C11.10541054 35.73024995 6.05580081 34.82193052 0.25 34.875 C-0.79607422 34.90400391 -1.84214844 34.93300781 -2.91992188 34.96289062 C-4.43875977 34.97545898 -4.43875977 34.97545898 -5.98828125 34.98828125 C-6.91294189 35.00286377 -7.83760254 35.01744629 -8.7902832 35.0324707 C-12.35730935 34.39920267 -13.96924053 33.19437827 -16.4375 30.5625 C-17.06860352 27.78515625 -17.06860352 27.78515625 -17.06640625 24.625 C-17.06833984 23.48289063 -17.07027344 22.34078125 -17.07226562 21.1640625 C-17.04841797 19.97554687 -17.02457031 18.78703125 -17 17.5625 C-17.01095703 16.37398437 -17.02191406 15.18546875 -17.03320312 13.9609375 C-16.95979137 5.28856242 -16.95979137 5.28856242 -14.75732422 2.22680664 C-10.38313999 -0.91135521 -5.19901493 -0.05013231 0 0 Z " fill="#2B438D" transform="translate(409.4375,187.4375)"/>
<path d="M0 0 C1.62035156 -0.02900391 1.62035156 -0.02900391 3.2734375 -0.05859375 C7.97977347 -0.02954229 11.10097061 0.0919569 15.1953125 2.51953125 C19.24700855 9.49160562 18.37523521 18.88008564 17 26.625 C15.53488932 30.12739475 14.44750839 31.47062841 11.31640625 33.56640625 C4.12544426 35.86175454 -4.59915049 36.24893373 -12 34.625 C-14.5150802 32.72420206 -15.61150495 31.4019901 -17 28.625 C-17.32135165 24.861118 -17.32437846 21.08840678 -17.375 17.3125 C-17.41238281 16.26642578 -17.44976562 15.22035156 -17.48828125 14.14257812 C-17.54088244 9.55166344 -17.48229357 6.49291596 -15.2265625 2.43359375 C-10.2525149 -0.35452252 -5.60632664 -0.10035191 0 0 Z " fill="#2A428C" transform="translate(273,255.375)"/>
<path d="M0 0 C4.53335573 3.0616265 7.56167837 7.35442285 8.6328125 12.73828125 C8.92236784 18.32669931 7.61252561 23.04940175 4.1875 27.5 C0.3317259 31.16032012 -3.50802165 32.81489203 -8.8125 33.125 C-14.11697835 32.81489203 -17.9567259 31.16032012 -21.8125 27.5 C-25.23752561 23.04940175 -26.54736784 18.32669931 -26.2578125 12.73828125 C-25.18667837 7.35442285 -22.15835573 3.0616265 -17.625 0 C-12.08494615 -2.70364284 -5.54005385 -2.70364284 0 0 Z " fill="#FDDC42" transform="translate(375.8125,368.5)"/>
<path d="M0 0 C0.66 -0.01289063 1.32 -0.02578125 2 -0.0390625 C5.27924895 1.04975063 6.20759201 2.68273234 8 5.625 C8.55224922 9.1462875 8.46552309 12.6190537 8.390625 16.17578125 C8.38496521 17.18972458 8.37930542 18.20366791 8.37347412 19.24833679 C8.35112998 22.47854336 8.30093598 25.70763017 8.25 28.9375 C8.22993252 31.13084333 8.21168218 33.32420408 8.1953125 35.51757812 C8.15127139 40.88714849 8.0822562 46.25588456 8 51.625 C2.72 51.625 -2.56 51.625 -8 51.625 C-8.0989613 45.16549134 -8.17151336 38.70642506 -8.21972656 32.24633789 C-8.23982767 30.04931958 -8.26711306 27.85235468 -8.30175781 25.65551758 C-8.35034093 22.49547134 -8.37298405 19.33613313 -8.390625 16.17578125 C-8.41127014 15.19539383 -8.43191528 14.21500641 -8.45318604 13.20491028 C-8.45462831 8.81027514 -8.42799728 6.32756468 -6.10058594 2.50708008 C-3.8485799 0.48933083 -2.98001752 -0.05820347 0 0 Z " fill="#425DA3" transform="translate(367,316.375)"/>
<path d="M0 0 C4.18084291 -0.09922585 8.36105371 -0.17163374 12.54272461 -0.21972656 C13.96374457 -0.23978421 15.38468259 -0.26703778 16.80541992 -0.30175781 C18.85355895 -0.35054011 20.90060275 -0.37302539 22.94921875 -0.390625 C24.17987061 -0.41157227 25.41052246 -0.43251953 26.6784668 -0.45410156 C30.63015091 0.08615073 32.26110271 1.14096725 35 4 C35.625 7.4375 35.625 7.4375 35 11 C32.37769702 14.36429726 30.93561514 15.84010987 26.6784668 16.56762695 C25.44781494 16.54144287 24.21716309 16.51525879 22.94921875 16.48828125 C22.29041214 16.48120651 21.63160553 16.47413177 20.95283508 16.46684265 C18.86319966 16.43900979 16.77631524 16.37630819 14.6875 16.3125 C13.26501286 16.28740205 11.84248341 16.26459148 10.41992188 16.24414062 C6.94573139 16.18922446 3.4731345 16.10303685 0 16 C0.24339111 15.07973022 0.24339111 15.07973022 0.49169922 14.14086914 C1.03882752 11.83646566 1.1330053 9.80306681 1.125 7.4375 C1.12757813 6.67308594 1.13015625 5.90867187 1.1328125 5.12109375 C1.07907384 2.81001505 1.07907384 2.81001505 0 0 Z " fill="#435EA3" transform="translate(382,376)"/>
<path d="M0 0 C0.93585938 0.01804688 1.87171875 0.03609375 2.8359375 0.0546875 C5.14167015 0.10174327 7.44530945 0.16746287 9.75 0.25 C10.4200834 2.37392506 11.08596797 4.49917524 11.75 6.625 C12.12125 7.80835937 12.4925 8.99171875 12.875 10.2109375 C13.75 13.25 13.75 13.25 13.75 15.25 C10.02124612 15.39560195 6.29322566 15.48417043 2.5625 15.5625 C1.50740234 15.60439453 0.45230469 15.64628906 -0.63476562 15.68945312 C-8.47523775 15.81311988 -8.47523775 15.81311988 -12.453125 12.921875 C-14.64834985 9.65767109 -14.9883924 8.10604921 -14.25 4.25 C-10.76155653 -1.17321044 -5.78321625 -0.21059331 0 0 Z " fill="#E80154" transform="translate(305.25,60.75)"/>
<path d="M0 0 C0.93585938 0.01804688 1.87171875 0.03609375 2.8359375 0.0546875 C5.14167015 0.10174327 7.44530945 0.16746287 9.75 0.25 C10.25435694 2.1863704 10.75333874 4.12414146 11.25 6.0625 C11.5284375 7.14144531 11.806875 8.22039062 12.09375 9.33203125 C12.75 12.25 12.75 12.25 12.75 15.25 C9.00026094 15.36622939 5.25098536 15.4372595 1.5 15.5 C0.43652344 15.53351563 -0.62695312 15.56703125 -1.72265625 15.6015625 C-2.74746094 15.61445312 -3.77226563 15.62734375 -4.828125 15.640625 C-5.77075195 15.66157227 -6.71337891 15.68251953 -7.68457031 15.70410156 C-11.03810767 15.11049864 -12.19379329 13.91606837 -14.25 11.25 C-14.78576461 7.4996477 -14.90618491 5.28957385 -12.859375 2.046875 C-8.78897033 -0.75609828 -4.81290813 -0.17525996 0 0 Z " fill="#E80154" transform="translate(109.25,60.75)"/>
<path d="M0 0 C3.2508878 -0.10796306 6.49819179 -0.18729295 9.75 -0.25 C10.67039063 -0.28351562 11.59078125 -0.31703125 12.5390625 -0.3515625 C19.35944029 -0.45040855 19.35944029 -0.45040855 22.60546875 1.83203125 C24.54456219 4.84658827 24.64644626 6.48045923 24 10 C22.203125 12.671875 22.203125 12.671875 19 15 C15.04567814 15.61723981 11.17727252 15.47092102 7.1875 15.3125 C5.57584961 15.27866211 5.57584961 15.27866211 3.93164062 15.24414062 C1.28716112 15.18537441 -1.35659933 15.09569833 -4 15 C-2.68 10.05 -1.36 5.1 0 0 Z " fill="#E80054" transform="translate(163,61)"/>
<path d="M0 0 C3.24969769 -0.11638036 6.4988583 -0.18730581 9.75 -0.25 C10.67039062 -0.28351562 11.59078125 -0.31703125 12.5390625 -0.3515625 C19.35944029 -0.45040855 19.35944029 -0.45040855 22.60546875 1.83203125 C24.54456219 4.84658827 24.64644626 6.48045923 24 10 C22.203125 12.671875 22.203125 12.671875 19 15 C15.04567814 15.61723981 11.17727252 15.47092102 7.1875 15.3125 C5.57584961 15.27866211 5.57584961 15.27866211 3.93164062 15.24414062 C1.2863315 15.18535598 -1.35611413 15.10323957 -4 15 C-3.79503906 14.41992188 -3.59007812 13.83984375 -3.37890625 13.2421875 C-1.85990187 8.8378016 -0.5952849 4.64322223 0 0 Z " fill="#E80054" transform="translate(359,61)"/>
<path d="M0 0 C1.03125 0.00322266 2.0625 0.00644531 3.125 0.00976562 C4.74535156 0.02233398 4.74535156 0.02233398 6.3984375 0.03515625 C8.03039062 0.04192383 8.03039062 0.04192383 9.6953125 0.04882812 C12.38807539 0.06063849 15.08072938 0.07710847 17.7734375 0.09765625 C17.7734375 0.42765625 17.7734375 0.75765625 17.7734375 1.09765625 C7.3784375 1.59265625 7.3784375 1.59265625 -3.2265625 2.09765625 C-2.2365625 3.41765625 -1.2465625 4.73765625 -0.2265625 6.09765625 C0.41344468 9.88672203 0.28294216 13.69765086 0.2734375 17.53515625 C0.30179688 18.57220703 0.33015625 19.60925781 0.359375 20.67773438 C0.37852042 28.13008956 0.37852042 28.13008956 -1.375 30.93408203 C-2.7578125 32.3203125 -2.7578125 32.3203125 -5.2265625 34.09765625 C-7.59855585 33.14885891 -8.95695557 32.52539232 -10.33837891 30.33374023 C-12.01175966 26.1208501 -11.59575172 21.63736587 -11.6015625 17.16015625 C-11.62605469 16.17080078 -11.65054688 15.18144531 -11.67578125 14.16210938 C-11.70513844 6.88642029 -11.70513844 6.88642029 -9.328125 2.96875 C-6.07616731 0.07341964 -4.27052748 -0.02346444 0 0 Z " fill="#425DA2" transform="translate(130.2265625,323.90234375)"/>
<path d="M0 0 C1.03125 0.00322266 2.0625 0.00644531 3.125 0.00976562 C4.74535156 0.02233398 4.74535156 0.02233398 6.3984375 0.03515625 C8.03039062 0.04192383 8.03039062 0.04192383 9.6953125 0.04882812 C12.38807539 0.06063849 15.08072938 0.07710847 17.7734375 0.09765625 C17.7734375 0.42765625 17.7734375 0.75765625 17.7734375 1.09765625 C7.3784375 1.59265625 7.3784375 1.59265625 -3.2265625 2.09765625 C-2.2365625 3.41765625 -1.2465625 4.73765625 -0.2265625 6.09765625 C0.16162109 8.49194336 0.16162109 8.49194336 0.171875 11.125 C0.17574219 12.08212891 0.17960937 13.03925781 0.18359375 14.02539062 C0.17199219 15.01861328 0.16039062 16.01183594 0.1484375 17.03515625 C0.16003906 18.02451172 0.17164063 19.01386719 0.18359375 20.03320312 C0.14618112 29.30529898 0.14618112 29.30529898 -3.2265625 33.09765625 C-4.7115625 33.59265625 -4.7115625 33.59265625 -6.2265625 34.09765625 C-9.34997536 31.84048309 -10.96440604 30.46505575 -11.70361328 26.609375 C-11.86409097 23.59177531 -11.85883428 20.61858589 -11.7890625 17.59765625 C-11.80001953 16.56511719 -11.81097656 15.53257812 -11.82226562 14.46875 C-11.77770118 9.8637569 -11.73457233 6.93706717 -9.31640625 2.94140625 C-6.06694135 0.07458862 -4.25222772 -0.02336389 0 0 Z " fill="#3F5AA0" transform="translate(62.2265625,323.90234375)"/>
<path d="M0 0 C3.16115776 1.36983503 3.9927092 1.9890638 6 5 C6.46293464 8.75521688 6.37033534 12.53179702 6.375 16.3125 C6.39949219 17.34568359 6.42398437 18.37886719 6.44921875 19.44335938 C6.47297371 25.61568912 6.10552437 29.28594929 2 34 C-1.26460973 32.19587357 -2.88929795 31.16605307 -5 28 C-5.48756427 24.22458199 -5.41647305 20.42854104 -5.4375 16.625 C-5.48680664 15.06265625 -5.48680664 15.06265625 -5.53710938 13.46875 C-5.58999531 5.94933092 -5.58999531 5.94933092 -3.85595703 3.15917969 C-2.47265625 1.7734375 -2.47265625 1.7734375 0 0 Z " fill="#405BA1" transform="translate(329,188)"/>
<path d="M0 0 C1.61165039 0.03383789 1.61165039 0.03383789 3.25585938 0.06835938 C5.9011685 0.12714402 8.54361413 0.20926043 11.1875 0.3125 C11.1875 0.6425 11.1875 0.9725 11.1875 1.3125 C0.7925 1.8075 0.7925 1.8075 -9.8125 2.3125 C-8.8225 3.3025 -7.8325 4.2925 -6.8125 5.3125 C-6.16860231 9.23969232 -6.34931608 13.21349722 -6.375 17.1875 C-6.35501953 18.27675781 -6.33503906 19.36601562 -6.31445312 20.48828125 C-6.31936854 28.5200691 -6.31936854 28.5200691 -8.83984375 32.5703125 C-9.49082031 33.14523437 -10.14179688 33.72015625 -10.8125 34.3125 C-13.28050047 33.16076645 -14.86033565 32.26466435 -16.8125 30.3125 C-17.32470619 26.22913509 -17.22931454 22.11181046 -17.25 18 C-17.29930664 16.28780273 -17.29930664 16.28780273 -17.34960938 14.54101562 C-17.38062773 9.71625111 -17.36163278 6.31724512 -15.0234375 2.0390625 C-10.090086 -0.61366422 -5.50090794 -0.21842335 0 0 Z " fill="#3D59A0" transform="translate(204.8125,323.6875)"/>
<path d="M0 0 C0.33 0.66 0.66 1.32 1 2 C1.66 2 2.32 2 3 2 C5.87738176 6.91451063 5.36812634 11.88701922 5.375 17.4375 C5.39949219 18.47455078 5.42398438 19.51160156 5.44921875 20.58007812 C5.47872731 28.23754821 5.47872731 28.23754821 2.9765625 32.22265625 C1.99816406 33.10244141 1.99816406 33.10244141 1 34 C-2.39684851 32.59440751 -4.05987743 31.12020765 -6 28 C-6.61155232 24.37613682 -6.46369752 20.73253468 -6.4375 17.0625 C-6.45748047 16.07314453 -6.47746094 15.08378906 -6.49804688 14.06445312 C-6.49500921 9.54744906 -6.48153772 6.79201583 -4.09765625 2.87109375 C-2 1 -2 1 0 0 Z " fill="#425DA3" transform="translate(125,256)"/>
<path d="M0 0 C4.72540956 5.22886441 4.63945176 10.17392659 4.5625 17 C4.58634766 17.97195313 4.61019531 18.94390625 4.63476562 19.9453125 C4.62514501 24.65300105 4.54998558 27.97356027 1.46484375 31.6875 C0.65144531 32.450625 -0.16195312 33.21375 -1 34 C-3.36270336 33.05491866 -4.72803745 32.4289768 -6.10961914 30.24975586 C-7.83480443 25.890671 -7.41169622 21.19284579 -7.4375 16.5625 C-7.47037109 15.52544922 -7.50324219 14.48839844 -7.53710938 13.41992188 C-7.5972519 4.90702109 -7.5972519 4.90702109 -4.59765625 1.77734375 C-2 0 -2 0 0 0 Z " fill="#3F5BA1" transform="translate(58,256)"/>
<path d="M0 0 C4.875 2.75 4.875 2.75 6 5 C6.26793243 8.57730393 6.23160917 12.16378879 6.25 15.75 C6.270625 16.74 6.29125 17.73 6.3125 18.75 C6.34181594 24.23208004 6.19829361 28.31123947 3 33 C2.01 33.495 2.01 33.495 1 34 C-3.875 30.25 -3.875 30.25 -5 28 C-5.24085346 24.38031652 -5.1851958 20.75180726 -5.1875 17.125 C-5.19974609 16.11824219 -5.21199219 15.11148438 -5.22460938 14.07421875 C-5.22654297 13.10355469 -5.22847656 12.13289062 -5.23046875 11.1328125 C-5.23457764 10.24480957 -5.23868652 9.35680664 -5.24291992 8.44189453 C-4.97895538 5.78845401 -4.44914764 4.22876192 -3 2 C-2.01 1.34 -1.02 0.68 0 0 Z " fill="#425DA3" transform="translate(124,188)"/>
<path d="M0 0 C2.37347392 0.94938957 3.73072418 1.57225708 5.11181641 3.76611328 C6.77970426 7.96104837 6.36918667 12.41617476 6.375 16.875 C6.39949219 17.85597656 6.42398438 18.83695313 6.44921875 19.84765625 C6.47369924 25.89433795 5.97608558 29.36385279 2 34 C-1.26460973 32.19587357 -2.88929795 31.16605307 -5 28 C-5.48756427 24.22458199 -5.41647305 20.42854104 -5.4375 16.625 C-5.48680664 15.06265625 -5.48680664 15.06265625 -5.53710938 13.46875 C-5.58999531 5.94933092 -5.58999531 5.94933092 -3.85595703 3.15917969 C-2.47265625 1.7734375 -2.47265625 1.7734375 0 0 Z " fill="#3F5AA1" transform="translate(56,188)"/>
<path d="M0 0 C3.19815519 2.27424369 4.74357624 3.65745661 5.49316406 7.58203125 C5.67393086 10.73460413 5.6815114 13.8428965 5.625 17 C5.64433594 18.08023437 5.66367188 19.16046875 5.68359375 20.2734375 C5.6292912 29.0704507 5.6292912 29.0704507 2.4609375 32.25 C1.64882812 32.8275 0.83671875 33.405 0 34 C-3.28875604 31.70831127 -4.75781643 30.32193861 -5.49316406 26.30810547 C-5.67381841 23.00522791 -5.68146897 19.74469937 -5.625 16.4375 C-5.64433594 15.30119141 -5.66367188 14.16488281 -5.68359375 12.99414062 C-5.63462645 4.6941837 -5.63462645 4.6941837 -2.4609375 1.22265625 C-1.64882812 0.81917969 -0.83671875 0.41570312 0 0 Z " fill="#3D58A0" transform="translate(193,256)"/>
<path d="M0 0 C3.16115776 1.36983503 3.9927092 1.9890638 6 5 C6.25878906 7.49609375 6.25878906 7.49609375 6.265625 10.4375 C6.26820313 11.49710938 6.27078125 12.55671875 6.2734375 13.6484375 C6.26570312 14.75445312 6.25796875 15.86046875 6.25 17 C6.25773438 18.10601562 6.26546875 19.21203125 6.2734375 20.3515625 C6.27085937 21.41117188 6.26828125 22.47078125 6.265625 23.5625 C6.26336914 24.53316406 6.26111328 25.50382812 6.25878906 26.50390625 C6 29 6 29 4 32 C3.34 32 2.68 32 2 32 C1.67 32.66 1.34 33.32 1 34 C-1.35028737 32.36485554 -2.53747765 31.40904253 -4 29 C-4.74329343 24.80575569 -4.65196421 20.68584101 -4.5625 16.4375 C-4.57345703 15.30119141 -4.58441406 14.16488281 -4.59570312 12.99414062 C-4.52144864 4.60338432 -4.52144864 4.60338432 -1.96459961 1.64477539 C-1.31628174 1.10199951 -0.66796387 0.55922363 0 0 Z " fill="#3D59A0" transform="translate(192,188)"/>
<path d="M0 0 C3.16115776 1.36983503 3.9927092 1.9890638 6 5 C6.43724849 8.77704961 6.32416956 12.57539058 6.3125 16.375 C6.32861328 17.4165625 6.34472656 18.458125 6.36132812 19.53125 C6.36747765 29.14911315 6.36747765 29.14911315 3 33 C2.01 33.495 2.01 33.495 1 34 C-3.81540943 30.81234133 -3.81540943 30.81234133 -4.63110352 27.22265625 C-4.63037842 26.17980469 -4.62965332 25.13695312 -4.62890625 24.0625 C-4.63083984 22.92039063 -4.63277344 21.77828125 -4.63476562 20.6015625 C-4.61091797 19.41304687 -4.58707031 18.22453125 -4.5625 17 C-4.57345703 15.81148437 -4.58441406 14.62296875 -4.59570312 13.3984375 C-4.52128571 4.60726002 -4.52128571 4.60726002 -1.96459961 1.62890625 C-1.31628174 1.09136719 -0.66796387 0.55382812 0 0 Z " fill="#3C58A0" transform="translate(397,188)"/>
<path d="M0 0 C2.46875 1.22265625 2.46875 1.22265625 5 4 C5.73730218 8.1481058 5.60483946 12.23677347 5.5 16.4375 C5.50257813 17.56994141 5.50515625 18.70238281 5.5078125 19.86914062 C5.44039674 25.58936764 5.31856289 29.17915939 2 34 C-2.65440544 32.53018775 -2.65440544 32.53018775 -4.14086914 30.24975586 C-5.81197197 25.87373638 -5.41169893 21.19235846 -5.4375 16.5625 C-5.47037109 15.52544922 -5.50324219 14.48839844 -5.53710938 13.41992188 C-5.58990515 5.94691988 -5.58990515 5.94691988 -3.85595703 3.16357422 C-2.47265625 1.77734375 -2.47265625 1.77734375 0 0 Z " fill="#3D59A0" transform="translate(261,188)"/>
<path d="M0 0 C4.62080255 4.71695144 3.51342287 10.81205569 3.5 17 C3.52835937 18.18851562 3.55671875 19.37703125 3.5859375 20.6015625 C3.58851563 21.74367188 3.59109375 22.88578125 3.59375 24.0625 C3.60083984 25.10535156 3.60792969 26.14820313 3.61523438 27.22265625 C2.79540528 30.92359902 1.08886018 31.95709009 -2 34 C-6.94751436 29.21208288 -7.20263356 26.64282429 -7.33203125 19.89257812 C-7.34621094 18.83490234 -7.36039063 17.77722656 -7.375 16.6875 C-7.41238281 15.64142578 -7.44976562 14.59535156 -7.48828125 13.51757812 C-7.58723241 4.88134078 -7.58723241 4.88134078 -4.6015625 1.76953125 C-2 0 -2 0 0 0 Z " fill="#3D59A0" transform="translate(263,256)"/>
</svg>
